<?xml version="1.0" encoding="UTF-8" standalone="no"?>
<svg width="24" height="24" viewBox="0 0 24 24" fill="none" xmlns="http://www.w3.org/2000/svg">
  <path d="M12 2C6.48 2 2 6.48 2 12C2 17.52 6.48 22 12 22C17.52 22 22 17.52 22 12C22 6.48 17.52 2 12 2ZM12 20C7.59 20 4 16.41 4 12C4 7.59 7.59 4 12 4C16.41 4 20 7.59 20 12C20 16.41 16.41 20 12 20Z" fill="#C5C5C5"/>
  <path d="M12 6C10.9 6 10 6.9 10 8C10 9.1 10.9 10 12 10C13.1 10 14 9.1 14 8C14 6.9 13.1 6 12 6Z" fill="#C5C5C5"/>
  <path d="M12 11C9.79 11 8 12.79 8 15V16H16V15C16 12.79 14.21 11 12 11Z" fill="#C5C5C5"/>
  <path d="M7 9H5V11H7V9Z" fill="#C5C5C5"/>
  <path d="M19 9H17V11H19V9Z" fill="#C5C5C5"/>
  <path d="M19 13H17V15H19V13Z" fill="#C5C5C5"/>
  <path d="M7 13H5V15H7V13Z" fill="#C5C5C5"/>
</svg>
