<?xml version="1.0" encoding="UTF-8"?>
<svg width="800" height="600" viewBox="0 0 800 600" xmlns="http://www.w3.org/2000/svg">
  <defs>
    <linearGradient id="grad1" x1="0%" y1="0%" x2="100%" y2="100%">
      <stop offset="0%" style="stop-color:#4F46E5;stop-opacity:1" />
      <stop offset="100%" style="stop-color:#7C3AED;stop-opacity:1" />
    </linearGradient>
    <linearGradient id="grad2" x1="0%" y1="0%" x2="100%" y2="100%">
      <stop offset="0%" style="stop-color:#6366F1;stop-opacity:1" />
      <stop offset="100%" style="stop-color:#EC4899;stop-opacity:1" />
    </linearGradient>
  </defs>
  
  <!-- Background -->
  <rect width="800" height="600" fill="#0F172A" />
  
  <!-- Abstract shapes -->
  <circle cx="400" cy="300" r="250" fill="url(#grad1)" opacity="0.1" />
  <circle cx="200" cy="150" r="100" fill="url(#grad2)" opacity="0.2" />
  <circle cx="600" cy="450" r="150" fill="url(#grad1)" opacity="0.15" />
  
  <!-- Document icon -->
  <g transform="translate(300, 150) scale(1.5)">
    <rect x="50" y="50" width="100" height="140" rx="5" fill="#F8FAFC" />
    <rect x="65" y="70" width="70" height="5" rx="2" fill="#94A3B8" />
    <rect x="65" y="85" width="70" height="5" rx="2" fill="#94A3B8" />
    <rect x="65" y="100" width="70" height="5" rx="2" fill="#94A3B8" />
    <rect x="65" y="115" width="40" height="5" rx="2" fill="#94A3B8" />
    
    <!-- AI brain icon -->
    <circle cx="120" cy="150" r="20" fill="#6366F1" />
    <path d="M110 145 L115 150 L110 155 M130 145 L125 150 L130 155 M120 140 L120 160" stroke="white" stroke-width="2" fill="none" />
    <path d="M115 145 C115 140, 125 140, 125 145" stroke="white" stroke-width="2" fill="none" />
  </g>
  
  <!-- Decorative dots -->
  <g fill="#6366F1">
    <circle cx="150" cy="100" r="3" />
    <circle cx="170" cy="100" r="3" />
    <circle cx="190" cy="100" r="3" />
    <circle cx="650" cy="500" r="3" />
    <circle cx="670" cy="500" r="3" />
    <circle cx="690" cy="500" r="3" />
  </g>
</svg>
