<?xml version="1.0" encoding="UTF-8" standalone="no"?>
<svg width="600" height="400" viewBox="0 0 600 400" fill="none" xmlns="http://www.w3.org/2000/svg">
  <rect width="600" height="400" fill="#F3F4F6"/>
  <path d="M300 200m-150 0a150 150 0 1 0 300 0a150 150 0 1 0 -300 0" fill="#E0E7FF"/>
  <path d="M300 200m-100 0a100 100 0 1 0 200 0a100 100 0 1 0 -200 0" fill="#C7D2FE"/>
  <path d="M300 200m-50 0a50 50 0 1 0 100 0a50 50 0 1 0 -100 0" fill="#A5B4FC"/>
  <text x="300" y="210" font-family="Arial" font-size="24" text-anchor="middle" fill="#4F46E5">Lily AI</text>
</svg>
